<svg width="19" height="22" viewBox="0 0 19 22" fill="none" xmlns="http://www.w3.org/2000/svg">
<path d="M17.8334 6.04C17.8334 2.01 16.8934 1 13.1134 1H5.55337C1.77337 1 0.833374 2.01 0.833374 6.04V17.3C0.833374 19.96 2.29337 20.59 4.06337 18.69L4.07337 18.68C4.89337 17.81 6.14337 17.88 6.85337 18.83L7.86337 20.18C8.67337 21.25 9.98337 21.25 10.7934 20.18L11.8034 18.83C12.5234 17.87 13.7734 17.8 14.5934 18.68C16.3734 20.58 17.8234 19.95 17.8234 17.29V10M5.33337 6H13.3334M6.33337 10H12.3334" stroke="#8E6CEF" stroke-width="1.5" stroke-linecap="round" stroke-linejoin="round"/>
</svg>
