<svg width="16" height="16" viewBox="0 0 16 16" fill="none" xmlns="http://www.w3.org/2000/svg">
<path d="M5.00001 5.11336V4.4667C5.00001 2.9667 6.20667 1.49336 7.70667 1.35336C8.12346 1.31242 8.5442 1.35918 8.94181 1.49066C9.33943 1.62213 9.70512 1.8354 10.0153 2.11673C10.3256 2.39806 10.5734 2.74123 10.743 3.12414C10.9126 3.50706 11.0002 3.92124 11 4.34003V5.26003M2.54001 11.04L2.69334 12.2867C2.84001 13.5934 3.32001 14.6667 6.00001 14.6667H10C12.68 14.6667 13.16 13.5934 13.3 12.2867L13.8 8.2867C13.98 6.66003 13.5133 5.33336 10.6667 5.33336H5.33334C2.48667 5.33336 2.02001 6.66003 2.20001 8.2867" stroke="white" stroke-width="1.5" stroke-miterlimit="10" stroke-linecap="round" stroke-linejoin="round"/>
<path d="M10.33 8H10.336M5.66333 8H5.66866" stroke="white" stroke-width="2" stroke-linecap="round" stroke-linejoin="round"/>
</svg>
